# MagicaVoxel @ Ephtracy

# group
o 

# material
mtllib watering.mtl
usemtl palette

# normals
vn -1 0 0
vn 1 0 0
vn 0 0 1
vn 0 0 -1
vn 0 -1 0
vn 0 1 0

# texcoords
vt 0.775391 0.5
vt 0.779297 0.5
vt 0.955078 0.5
vt 0.994141 0.5

# verts
v -0.9 0.3 -5.96046e-08
v -0.9 0.3 -0.3
v -0.9 0.7 -5.96046e-08
v -0.9 0.7 -0.3
v -0.8 0.2 -5.96046e-08
v -0.8 0.2 -0.3
v -0.8 0.3 -5.96046e-08
v -0.8 0.3 -0.3
v -0.8 0.7 -5.96046e-08
v -0.8 0.7 -0.3
v -0.8 0.8 -5.96046e-08
v -0.8 0.8 -0.3
v -0.6 0.1 0.0999999
v -0.6 0.1 -0.4
v -0.6 0.2 -5.96046e-08
v -0.6 0.2 -0.3
v -0.6 0.3 -5.96046e-08
v -0.6 0.3 -0.3
v -0.6 0.7 -5.96046e-08
v -0.6 0.7 -0.3
v -0.6 0.8 -5.96046e-08
v -0.6 0.8 -0.3
v -0.6 0.9 0.0999999
v -0.6 0.9 -0.4
v -0.5 0 0.0999999
v -0.5 0 -0.4
v -0.5 0.1 0.2
v -0.5 0.1 0.0999999
v -0.5 0.1 -0.4
v -0.5 0.1 -0.5
v -0.5 0.9 0.2
v -0.5 0.9 0.0999999
v -0.5 0.9 -0.4
v -0.5 0.9 -0.5
v -0.3 0.8 0.0999999
v -0.3 0.8 -5.96046e-08
v -0.3 0.8 -0.3
v -0.3 0.8 -0.4
v -0.3 0.9 0.2
v -0.3 0.9 0.0999999
v -0.3 0.9 -5.96046e-08
v -0.3 0.9 -0.3
v -0.3 0.9 -0.4
v -0.3 0.9 -0.5
v -0.3 1 0.2
v -0.3 1 0.0999999
v -0.3 1 -0.4
v -0.3 1 -0.5
v -0.2 0.8 -5.96046e-08
v -0.2 0.8 -0.1
v -0.2 0.8 -0.2
v -0.2 0.8 -0.3
v -0.2 0.9 -5.96046e-08
v -0.2 0.9 -0.1
v -0.2 0.9 -0.2
v -0.2 0.9 -0.3
v -0.2 1 0.2
v -0.2 1 0.0999999
v -0.2 1 -0.4
v -0.2 1 -0.5
v -0.2 1.2 0.2
v -0.2 1.2 0.0999999
v -0.2 1.2 -0.4
v -0.2 1.2 -0.5
v -0.2 1.3 0.0999999
v -0.2 1.3 -0.4
v -0.1 0.8 -0.1
v -0.1 0.8 -0.2
v -0.1 0.9 -0.1
v -0.1 0.9 -0.2
v 0.2 0.2 0.0999999
v 0.2 0.2 -0.4
v 0.2 0.8 0.0999999
v 0.2 0.8 -0.4
v 0.4 0.5 -5.96046e-08
v 0.4 0.5 -0.3
v 0.4 0.6 -5.96046e-08
v 0.4 0.6 -0.3
v 0.5 0.6 -5.96046e-08
v 0.5 0.6 -0.3
v 0.5 0.7 -5.96046e-08
v 0.5 0.7 -0.3
v 0.6 0.7 -5.96046e-08
v 0.6 0.7 -0.1
v 0.6 0.7 -0.2
v 0.6 0.7 -0.3
v 0.6 0.8 -5.96046e-08
v 0.6 0.8 -0.1
v 0.6 0.8 -0.2
v 0.6 0.8 -0.3
v 0.7 0.8 -5.96046e-08
v 0.7 0.8 -0.1
v 0.7 0.8 -0.2
v 0.7 0.8 -0.3
v 0.7 0.9 -5.96046e-08
v 0.7 0.9 -0.3
v 0.8 0.6 -5.96046e-08
v 0.8 0.6 -0.3
v 0.8 0.7 -5.96046e-08
v 0.8 0.7 -0.3
v 0.8 0.9 -5.96046e-08
v 0.8 0.9 -0.3
v 0.8 1 -5.96046e-08
v 0.8 1 -0.3
v -0.8 0.3 -5.96046e-08
v -0.8 0.3 -0.3
v -0.8 0.7 -5.96046e-08
v -0.8 0.7 -0.3
v -0.5 0.2 0.0999999
v -0.5 0.2 -0.4
v -0.5 0.3 -5.96046e-08
v -0.5 0.3 -0.3
v -0.5 0.7 -5.96046e-08
v -0.5 0.7 -0.3
v -0.5 0.8 0.0999999
v -0.5 0.8 -5.96046e-08
v -0.5 0.8 -0.3
v -0.5 0.8 -0.4
v -0.5 0.9 -5.96046e-08
v -0.5 0.9 -0.3
v -0.4 0.8 0.0999999
v -0.4 0.8 -5.96046e-08
v -0.4 0.8 -0.3
v -0.4 0.8 -0.4
v -0.4 0.9 0.0999999
v -0.4 0.9 -5.96046e-08
v -0.4 0.9 -0.3
v -0.4 0.9 -0.4
v -0.1 1 0.2
v -0.1 1 0.0999999
v -0.1 1 -0.4
v -0.1 1 -0.5
v -0.1 1.2 0.2
v -0.1 1.2 0.0999999
v -0.1 1.2 -0.4
v -0.1 1.2 -0.5
v -0.1 1.3 0.0999999
v -0.1 1.3 -0.4
v 0 0.9 0.2
v 0 0.9 0.0999999
v 0 0.9 -0.4
v 0 0.9 -0.5
v 0 1 0.2
v 0 1 0.0999999
v 0 1 -0.4
v 0 1 -0.5
v 0.2 0 0.0999999
v 0.2 0 -0.4
v 0.2 0.1 0.2
v 0.2 0.1 0.0999999
v 0.2 0.1 -0.4
v 0.2 0.1 -0.5
v 0.2 0.9 0.2
v 0.2 0.9 0.0999999
v 0.2 0.9 -0.4
v 0.2 0.9 -0.5
v 0.3 0.1 0.0999999
v 0.3 0.1 -0.4
v 0.3 0.3 -5.96046e-08
v 0.3 0.3 -0.3
v 0.3 0.5 -5.96046e-08
v 0.3 0.5 -0.3
v 0.3 0.9 0.0999999
v 0.3 0.9 -0.4
v 0.4 0.3 -5.96046e-08
v 0.4 0.3 -0.3
v 0.4 0.4 -5.96046e-08
v 0.4 0.4 -0.3
v 0.5 0.4 -5.96046e-08
v 0.5 0.4 -0.3
v 0.5 0.5 -5.96046e-08
v 0.5 0.5 -0.3
v 0.6 0.5 -5.96046e-08
v 0.6 0.5 -0.3
v 0.6 0.6 -5.96046e-08
v 0.6 0.6 -0.3
v 0.7 0.6 -5.96046e-08
v 0.7 0.6 -0.3
v 0.7 0.7 -5.96046e-08
v 0.7 0.7 -0.3
v 0.9 0.6 -5.96046e-08
v 0.9 0.6 -0.3
v 0.9 0.7 -0.1
v 0.9 0.7 -0.2
v 0.9 0.9 -0.1
v 0.9 0.9 -0.2
v 0.9 1 -5.96046e-08
v 0.9 1 -0.3
v -0.5 0.1 0.2
v -0.5 0.9 0.2
v -0.3 0.8 0.2
v -0.3 0.9 0.2
v -0.3 1 0.2
v -0.2 0.7 0.2
v -0.2 0.8 0.2
v -0.2 1 0.2
v -0.2 1.2 0.2
v -0.1 0.7 0.2
v -0.1 0.8 0.2
v -0.1 1 0.2
v -0.1 1.2 0.2
v 0 0.8 0.2
v 0 0.9 0.2
v 0 1 0.2
v 0.2 0.1 0.2
v 0.2 0.9 0.2
v -0.6 0.1 0.0999999
v -0.6 0.9 0.0999999
v -0.5 0 0.0999999
v -0.5 0.1 0.0999999
v -0.5 0.9 0.0999999
v -0.2 1.2 0.0999999
v -0.2 1.3 0.0999999
v -0.1 1.2 0.0999999
v -0.1 1.3 0.0999999
v 0.2 0 0.0999999
v 0.2 0.1 0.0999999
v 0.2 0.9 0.0999999
v 0.3 0.1 0.0999999
v 0.3 0.9 0.0999999
v -0.9 0.3 -5.96046e-08
v -0.9 0.7 -5.96046e-08
v -0.8 0.2 -5.96046e-08
v -0.8 0.3 -5.96046e-08
v -0.8 0.7 -5.96046e-08
v -0.8 0.8 -5.96046e-08
v -0.6 0.2 -5.96046e-08
v -0.6 0.3 -5.96046e-08
v -0.6 0.7 -5.96046e-08
v -0.6 0.8 -5.96046e-08
v 0.3 0.3 -5.96046e-08
v 0.3 0.5 -5.96046e-08
v 0.4 0.3 -5.96046e-08
v 0.4 0.4 -5.96046e-08
v 0.4 0.5 -5.96046e-08
v 0.4 0.6 -5.96046e-08
v 0.5 0.4 -5.96046e-08
v 0.5 0.5 -5.96046e-08
v 0.5 0.6 -5.96046e-08
v 0.5 0.7 -5.96046e-08
v 0.6 0.5 -5.96046e-08
v 0.6 0.6 -5.96046e-08
v 0.6 0.7 -5.96046e-08
v 0.6 0.8 -5.96046e-08
v 0.7 0.6 -5.96046e-08
v 0.7 0.7 -5.96046e-08
v 0.7 0.8 -5.96046e-08
v 0.7 0.9 -5.96046e-08
v 0.8 0.6 -5.96046e-08
v 0.8 0.7 -5.96046e-08
v 0.8 0.9 -5.96046e-08
v 0.8 1 -5.96046e-08
v 0.9 0.6 -5.96046e-08
v 0.9 1 -5.96046e-08
v -0.2 0.8 -0.2
v -0.2 0.9 -0.2
v -0.1 0.8 -0.2
v -0.1 0.9 -0.2
v -0.5 0.8 -0.3
v -0.5 0.9 -0.3
v -0.4 0.8 -0.3
v -0.4 0.9 -0.3
v -0.3 0.8 -0.3
v -0.3 0.9 -0.3
v -0.2 0.8 -0.3
v -0.2 0.9 -0.3
v -0.5 0.2 -0.4
v -0.5 0.8 -0.4
v -0.4 0.8 -0.4
v -0.4 0.9 -0.4
v -0.3 0.8 -0.4
v -0.3 0.9 -0.4
v -0.3 1 -0.4
v -0.2 0.7 -0.4
v -0.2 0.8 -0.4
v -0.2 1 -0.4
v -0.2 1.2 -0.4
v -0.1 0.7 -0.4
v -0.1 0.8 -0.4
v -0.1 1 -0.4
v -0.1 1.2 -0.4
v 0 0.9 -0.4
v 0 1 -0.4
v 0.2 0.2 -0.4
v 0.2 0.8 -0.4
v -0.5 0.2 0.0999999
v -0.5 0.8 0.0999999
v -0.4 0.8 0.0999999
v -0.4 0.9 0.0999999
v -0.3 0.8 0.0999999
v -0.3 0.9 0.0999999
v -0.3 1 0.0999999
v -0.2 0.7 0.0999999
v -0.2 0.8 0.0999999
v -0.2 1 0.0999999
v -0.2 1.2 0.0999999
v -0.1 0.7 0.0999999
v -0.1 0.8 0.0999999
v -0.1 1 0.0999999
v -0.1 1.2 0.0999999
v 0 0.9 0.0999999
v 0 1 0.0999999
v 0.2 0.2 0.0999999
v 0.2 0.8 0.0999999
v -0.5 0.8 -5.96046e-08
v -0.5 0.9 -5.96046e-08
v -0.4 0.8 -5.96046e-08
v -0.4 0.9 -5.96046e-08
v -0.3 0.8 -5.96046e-08
v -0.3 0.9 -5.96046e-08
v -0.2 0.8 -5.96046e-08
v -0.2 0.9 -5.96046e-08
v -0.2 0.8 -0.1
v -0.2 0.9 -0.1
v -0.1 0.8 -0.1
v -0.1 0.9 -0.1
v -0.9 0.3 -0.3
v -0.9 0.7 -0.3
v -0.8 0.2 -0.3
v -0.8 0.3 -0.3
v -0.8 0.7 -0.3
v -0.8 0.8 -0.3
v -0.6 0.2 -0.3
v -0.6 0.3 -0.3
v -0.6 0.7 -0.3
v -0.6 0.8 -0.3
v 0.3 0.3 -0.3
v 0.3 0.5 -0.3
v 0.4 0.3 -0.3
v 0.4 0.4 -0.3
v 0.4 0.5 -0.3
v 0.4 0.6 -0.3
v 0.5 0.4 -0.3
v 0.5 0.5 -0.3
v 0.5 0.6 -0.3
v 0.5 0.7 -0.3
v 0.6 0.5 -0.3
v 0.6 0.6 -0.3
v 0.6 0.7 -0.3
v 0.6 0.8 -0.3
v 0.7 0.6 -0.3
v 0.7 0.7 -0.3
v 0.7 0.8 -0.3
v 0.7 0.9 -0.3
v 0.8 0.6 -0.3
v 0.8 0.7 -0.3
v 0.8 0.9 -0.3
v 0.8 1 -0.3
v 0.9 0.6 -0.3
v 0.9 1 -0.3
v -0.6 0.1 -0.4
v -0.6 0.9 -0.4
v -0.5 0 -0.4
v -0.5 0.1 -0.4
v -0.5 0.9 -0.4
v -0.2 1.2 -0.4
v -0.2 1.3 -0.4
v -0.1 1.2 -0.4
v -0.1 1.3 -0.4
v 0.2 0 -0.4
v 0.2 0.1 -0.4
v 0.2 0.9 -0.4
v 0.3 0.1 -0.4
v 0.3 0.9 -0.4
v -0.5 0.1 -0.5
v -0.5 0.9 -0.5
v -0.3 0.8 -0.5
v -0.3 0.9 -0.5
v -0.3 1 -0.5
v -0.2 0.7 -0.5
v -0.2 0.8 -0.5
v -0.2 1 -0.5
v -0.2 1.2 -0.5
v -0.1 0.7 -0.5
v -0.1 0.8 -0.5
v -0.1 1 -0.5
v -0.1 1.2 -0.5
v 0 0.8 -0.5
v 0 0.9 -0.5
v 0 1 -0.5
v 0.2 0.1 -0.5
v 0.2 0.9 -0.5
v -0.5 0 0.0999999
v 0.2 0 0.0999999
v -0.5 0 -0.4
v 0.2 0 -0.4
v -0.5 0.1 0.2
v 0.2 0.1 0.2
v -0.6 0.1 0.0999999
v -0.5 0.1 0.0999999
v 0.2 0.1 0.0999999
v 0.3 0.1 0.0999999
v -0.6 0.1 -0.4
v -0.5 0.1 -0.4
v 0.2 0.1 -0.4
v 0.3 0.1 -0.4
v -0.5 0.1 -0.5
v 0.2 0.1 -0.5
v -0.8 0.2 -5.96046e-08
v -0.6 0.2 -5.96046e-08
v -0.8 0.2 -0.3
v -0.6 0.2 -0.3
v -0.9 0.3 -5.96046e-08
v -0.8 0.3 -5.96046e-08
v 0.3 0.3 -5.96046e-08
v 0.4 0.3 -5.96046e-08
v -0.9 0.3 -0.3
v -0.8 0.3 -0.3
v 0.3 0.3 -0.3
v 0.4 0.3 -0.3
v 0.4 0.4 -5.96046e-08
v 0.5 0.4 -5.96046e-08
v 0.4 0.4 -0.3
v 0.5 0.4 -0.3
v 0.5 0.5 -5.96046e-08
v 0.6 0.5 -5.96046e-08
v 0.5 0.5 -0.3
v 0.6 0.5 -0.3
v 0.6 0.6 -5.96046e-08
v 0.7 0.6 -5.96046e-08
v 0.8 0.6 -5.96046e-08
v 0.9 0.6 -5.96046e-08
v 0.6 0.6 -0.3
v 0.7 0.6 -0.3
v 0.8 0.6 -0.3
v 0.9 0.6 -0.3
v -0.8 0.7 -5.96046e-08
v -0.6 0.7 -5.96046e-08
v 0.7 0.7 -5.96046e-08
v 0.8 0.7 -5.96046e-08
v -0.8 0.7 -0.3
v -0.6 0.7 -0.3
v 0.7 0.7 -0.3
v 0.8 0.7 -0.3
v -0.5 0.8 0.0999999
v -0.4 0.8 0.0999999
v -0.3 0.8 0.0999999
v -0.2 0.8 0.0999999
v -0.1 0.8 0.0999999
v 0.2 0.8 0.0999999
v -0.5 0.8 -5.96046e-08
v -0.4 0.8 -5.96046e-08
v -0.3 0.8 -5.96046e-08
v -0.2 0.8 -5.96046e-08
v -0.2 0.8 -0.1
v -0.1 0.8 -0.1
v -0.2 0.8 -0.2
v -0.1 0.8 -0.2
v -0.5 0.8 -0.3
v -0.4 0.8 -0.3
v -0.3 0.8 -0.3
v -0.2 0.8 -0.3
v -0.5 0.8 -0.4
v -0.4 0.8 -0.4
v -0.3 0.8 -0.4
v -0.2 0.8 -0.4
v -0.1 0.8 -0.4
v 0.2 0.8 -0.4
v -0.2 1.2 0.0999999
v -0.1 1.2 0.0999999
v -0.2 1.2 -0.4
v -0.1 1.2 -0.4
v -0.5 0.2 0.0999999
v 0.2 0.2 0.0999999
v -0.5 0.2 -0.4
v 0.2 0.2 -0.4
v -0.8 0.3 -5.96046e-08
v -0.6 0.3 -5.96046e-08
v -0.8 0.3 -0.3
v -0.6 0.3 -0.3
v 0.3 0.5 -5.96046e-08
v 0.4 0.5 -5.96046e-08
v 0.3 0.5 -0.3
v 0.4 0.5 -0.3
v 0.4 0.6 -5.96046e-08
v 0.5 0.6 -5.96046e-08
v 0.4 0.6 -0.3
v 0.5 0.6 -0.3
v -0.9 0.7 -5.96046e-08
v -0.8 0.7 -5.96046e-08
v 0.5 0.7 -5.96046e-08
v 0.6 0.7 -5.96046e-08
v 0.6 0.7 -0.1
v 0.6 0.7 -0.2
v -0.9 0.7 -0.3
v -0.8 0.7 -0.3
v 0.5 0.7 -0.3
v 0.6 0.7 -0.3
v -0.8 0.8 -5.96046e-08
v -0.6 0.8 -5.96046e-08
v 0.6 0.8 -5.96046e-08
v 0.7 0.8 -5.96046e-08
v 0.6 0.8 -0.1
v 0.7 0.8 -0.1
v 0.6 0.8 -0.2
v 0.7 0.8 -0.2
v -0.8 0.8 -0.3
v -0.6 0.8 -0.3
v 0.6 0.8 -0.3
v 0.7 0.8 -0.3
v -0.5 0.9 0.2
v -0.3 0.9 0.2
v 0 0.9 0.2
v 0.2 0.9 0.2
v -0.6 0.9 0.0999999
v -0.5 0.9 0.0999999
v -0.4 0.9 0.0999999
v -0.3 0.9 0.0999999
v 0 0.9 0.0999999
v 0.2 0.9 0.0999999
v 0.3 0.9 0.0999999
v -0.5 0.9 -5.96046e-08
v -0.4 0.9 -5.96046e-08
v -0.3 0.9 -5.96046e-08
v -0.2 0.9 -5.96046e-08
v 0.7 0.9 -5.96046e-08
v 0.8 0.9 -5.96046e-08
v -0.2 0.9 -0.1
v -0.1 0.9 -0.1
v -0.2 0.9 -0.2
v -0.1 0.9 -0.2
v -0.5 0.9 -0.3
v -0.4 0.9 -0.3
v -0.3 0.9 -0.3
v -0.2 0.9 -0.3
v 0.7 0.9 -0.3
v 0.8 0.9 -0.3
v -0.6 0.9 -0.4
v -0.5 0.9 -0.4
v -0.4 0.9 -0.4
v -0.3 0.9 -0.4
v 0 0.9 -0.4
v 0.2 0.9 -0.4
v 0.3 0.9 -0.4
v -0.5 0.9 -0.5
v -0.3 0.9 -0.5
v 0 0.9 -0.5
v 0.2 0.9 -0.5
v -0.3 1 0.2
v -0.2 1 0.2
v -0.1 1 0.2
v 0 1 0.2
v -0.3 1 0.0999999
v -0.2 1 0.0999999
v -0.1 1 0.0999999
v 0 1 0.0999999
v 0.8 1 -5.96046e-08
v 0.9 1 -5.96046e-08
v 0.8 1 -0.3
v 0.9 1 -0.3
v -0.3 1 -0.4
v -0.2 1 -0.4
v -0.1 1 -0.4
v 0 1 -0.4
v -0.3 1 -0.5
v -0.2 1 -0.5
v -0.1 1 -0.5
v 0 1 -0.5
v -0.2 1.2 0.2
v -0.1 1.2 0.2
v -0.2 1.2 0.0999999
v -0.1 1.2 0.0999999
v -0.2 1.2 -0.4
v -0.1 1.2 -0.4
v -0.2 1.2 -0.5
v -0.1 1.2 -0.5
v -0.2 1.3 0.0999999
v -0.1 1.3 0.0999999
v -0.2 1.3 -0.4
v -0.1 1.3 -0.4

# faces
f 3/4/1 2/4/1 1/4/1
f 4/4/1 2/4/1 3/4/1
f 7/4/1 6/4/1 5/4/1
f 8/4/1 6/4/1 7/4/1
f 11/4/1 10/4/1 9/4/1
f 12/4/1 10/4/1 11/4/1
f 15/2/1 14/2/1 13/2/1
f 16/2/1 14/2/1 15/2/1
f 17/2/1 15/2/1 13/2/1
f 18/2/1 14/2/1 16/2/1
f 19/2/1 17/2/1 13/2/1
f 19/4/1 18/4/1 17/4/1
f 20/2/1 14/2/1 18/2/1
f 20/4/1 18/4/1 19/4/1
f 21/2/1 19/2/1 13/2/1
f 22/2/1 14/2/1 20/2/1
f 23/2/1 21/2/1 13/2/1
f 23/2/1 22/2/1 21/2/1
f 24/2/1 14/2/1 22/2/1
f 24/2/1 22/2/1 23/2/1
f 28/2/1 26/2/1 25/2/1
f 29/2/1 26/2/1 28/2/1
f 31/2/1 28/2/1 27/2/1
f 32/2/1 28/2/1 31/2/1
f 33/2/1 30/2/1 29/2/1
f 34/2/1 30/2/1 33/2/1
f 40/2/1 36/2/1 35/2/1
f 41/2/1 36/2/1 40/2/1
f 42/2/1 38/2/1 37/2/1
f 43/2/1 38/2/1 42/2/1
f 45/4/1 40/4/1 39/4/1
f 46/4/1 40/4/1 45/4/1
f 47/4/1 44/4/1 43/4/1
f 48/4/1 44/4/1 47/4/1
f 53/2/1 50/2/1 49/2/1
f 54/2/1 50/2/1 53/2/1
f 55/2/1 52/2/1 51/2/1
f 56/2/1 52/2/1 55/2/1
f 61/4/1 58/4/1 57/4/1
f 62/4/1 58/4/1 61/4/1
f 63/4/1 60/4/1 59/4/1
f 64/4/1 60/4/1 63/4/1
f 65/4/1 63/4/1 62/4/1
f 66/4/1 63/4/1 65/4/1
f 69/2/1 68/2/1 67/2/1
f 70/2/1 68/2/1 69/2/1
f 73/2/1 72/2/1 71/2/1
f 74/2/1 72/2/1 73/2/1
f 77/2/1 76/2/1 75/2/1
f 78/2/1 76/2/1 77/2/1
f 81/2/1 80/2/1 79/2/1
f 82/2/1 80/2/1 81/2/1
f 87/1/1 84/1/1 83/1/1
f 88/2/1 85/2/1 84/2/1
f 88/1/1 84/1/1 87/1/1
f 89/1/1 86/1/1 85/1/1
f 89/2/1 85/2/1 88/2/1
f 90/1/1 86/1/1 89/1/1
f 95/1/1 92/1/1 91/1/1
f 95/1/1 94/1/1 93/1/1
f 95/1/1 93/1/1 92/1/1
f 96/1/1 94/1/1 95/1/1
f 99/1/1 98/1/1 97/1/1
f 100/1/1 98/1/1 99/1/1
f 103/1/1 102/1/1 101/1/1
f 104/1/1 102/1/1 103/1/1
f 105/4/2 106/4/2 107/4/2
f 107/4/2 106/4/2 108/4/2
f 109/2/2 110/2/2 111/2/2
f 111/2/2 110/2/2 112/2/2
f 109/2/2 111/2/2 113/2/2
f 111/4/2 112/4/2 113/4/2
f 112/2/2 110/2/2 114/2/2
f 113/4/2 112/4/2 114/4/2
f 109/2/2 113/2/2 115/2/2
f 113/2/2 114/2/2 115/2/2
f 115/2/2 114/2/2 116/2/2
f 114/2/2 110/2/2 117/2/2
f 116/2/2 114/2/2 117/2/2
f 117/2/2 110/2/2 118/2/2
f 116/2/2 117/2/2 119/2/2
f 119/2/2 117/2/2 120/2/2
f 121/2/2 122/2/2 125/2/2
f 125/2/2 122/2/2 126/2/2
f 123/2/2 124/2/2 127/2/2
f 127/2/2 124/2/2 128/2/2
f 129/4/2 130/4/2 133/4/2
f 133/4/2 130/4/2 134/4/2
f 131/4/2 132/4/2 135/4/2
f 135/4/2 132/4/2 136/4/2
f 134/4/2 135/4/2 137/4/2
f 137/4/2 135/4/2 138/4/2
f 139/4/2 140/4/2 143/4/2
f 143/4/2 140/4/2 144/4/2
f 141/4/2 142/4/2 145/4/2
f 145/4/2 142/4/2 146/4/2
f 147/2/2 148/2/2 150/2/2
f 150/2/2 148/2/2 151/2/2
f 149/2/2 150/2/2 153/2/2
f 153/2/2 150/2/2 154/2/2
f 151/2/2 152/2/2 155/2/2
f 155/2/2 152/2/2 156/2/2
f 157/2/2 158/2/2 159/2/2
f 159/2/2 158/2/2 160/2/2
f 157/2/2 159/2/2 161/2/2
f 160/2/2 158/2/2 162/2/2
f 157/2/2 161/2/2 163/2/2
f 161/2/2 162/2/2 163/2/2
f 162/2/2 158/2/2 164/2/2
f 163/2/2 162/2/2 164/2/2
f 165/2/2 166/2/2 167/2/2
f 167/2/2 166/2/2 168/2/2
f 169/2/2 170/2/2 171/2/2
f 171/2/2 170/2/2 172/2/2
f 173/2/2 174/2/2 175/2/2
f 175/2/2 174/2/2 176/2/2
f 177/1/2 178/1/2 179/1/2
f 179/1/2 178/1/2 180/1/2
f 181/1/2 182/1/2 183/1/2
f 183/1/2 182/1/2 184/1/2
f 181/1/2 183/1/2 185/1/2
f 183/3/2 184/3/2 185/3/2
f 184/1/2 182/1/2 186/1/2
f 185/3/2 184/3/2 186/3/2
f 181/1/2 185/1/2 187/1/2
f 185/1/2 186/1/2 187/1/2
f 186/1/2 182/1/2 188/1/2
f 187/1/2 186/1/2 188/1/2
f 191/2/3 190/2/3 189/2/3
f 192/2/3 190/2/3 191/2/3
f 194/2/3 191/2/3 189/2/3
f 195/4/3 193/4/3 192/4/3
f 195/2/3 191/2/3 194/2/3
f 195/4/3 192/4/3 191/4/3
f 196/4/3 193/4/3 195/4/3
f 198/2/3 194/2/3 189/2/3
f 198/4/3 197/4/3 196/4/3
f 198/4/3 196/4/3 195/4/3
f 198/4/3 195/4/3 194/4/3
f 199/4/3 197/4/3 198/4/3
f 200/4/3 197/4/3 199/4/3
f 201/4/3 197/4/3 200/4/3
f 202/2/3 199/2/3 198/2/3
f 202/4/3 200/4/3 199/4/3
f 203/4/3 200/4/3 202/4/3
f 204/4/3 200/4/3 203/4/3
f 205/2/3 198/2/3 189/2/3
f 205/2/3 202/2/3 198/2/3
f 205/2/3 203/2/3 202/2/3
f 206/2/3 203/2/3 205/2/3
f 210/2/3 208/2/3 207/2/3
f 211/2/3 208/2/3 210/2/3
f 214/4/3 213/4/3 212/4/3
f 215/4/3 213/4/3 214/4/3
f 216/2/3 210/2/3 209/2/3
f 217/2/3 210/2/3 216/2/3
f 219/2/3 218/2/3 217/2/3
f 220/2/3 218/2/3 219/2/3
f 224/4/3 222/4/3 221/4/3
f 225/4/3 222/4/3 224/4/3
f 227/4/3 224/4/3 223/4/3
f 228/4/3 224/4/3 227/4/3
f 229/4/3 226/4/3 225/4/3
f 230/4/3 226/4/3 229/4/3
f 233/2/3 232/2/3 231/2/3
f 234/2/3 232/2/3 233/2/3
f 235/2/3 232/2/3 234/2/3
f 237/2/3 236/2/3 235/2/3
f 237/2/3 235/2/3 234/2/3
f 238/2/3 236/2/3 237/2/3
f 239/2/3 236/2/3 238/2/3
f 241/2/3 240/2/3 239/2/3
f 241/2/3 239/2/3 238/2/3
f 242/2/3 240/2/3 241/2/3
f 243/2/3 240/2/3 242/2/3
f 245/1/3 244/1/3 243/1/3
f 245/1/3 243/1/3 242/1/3
f 246/1/3 244/1/3 245/1/3
f 247/1/3 244/1/3 246/1/3
f 250/1/3 247/1/3 246/1/3
f 250/1/3 248/1/3 247/1/3
f 251/1/3 248/1/3 250/1/3
f 253/1/3 250/1/3 249/1/3
f 253/1/3 252/1/3 251/1/3
f 253/1/3 251/1/3 250/1/3
f 254/1/3 252/1/3 253/1/3
f 257/2/3 256/2/3 255/2/3
f 258/2/3 256/2/3 257/2/3
f 261/2/3 260/2/3 259/2/3
f 262/2/3 260/2/3 261/2/3
f 265/2/3 264/2/3 263/2/3
f 266/2/3 264/2/3 265/2/3
f 269/2/3 268/2/3 267/2/3
f 271/2/3 269/2/3 267/2/3
f 271/2/3 270/2/3 269/2/3
f 272/2/3 270/2/3 271/2/3
f 274/2/3 271/2/3 267/2/3
f 275/2/3 271/2/3 274/2/3
f 276/4/3 273/4/3 272/4/3
f 278/4/3 275/4/3 274/4/3
f 278/2/3 274/2/3 267/2/3
f 279/4/3 275/4/3 278/4/3
f 280/4/3 277/4/3 276/4/3
f 280/4/3 276/4/3 272/4/3
f 281/4/3 277/4/3 280/4/3
f 282/4/3 280/4/3 272/4/3
f 283/4/3 280/4/3 282/4/3
f 284/2/3 279/2/3 278/2/3
f 284/2/3 278/2/3 267/2/3
f 285/2/3 279/2/3 284/2/3
f 286/2/4 287/2/4 288/2/4
f 286/2/4 288/2/4 290/2/4
f 288/2/4 289/2/4 290/2/4
f 290/2/4 289/2/4 291/2/4
f 286/2/4 290/2/4 293/2/4
f 293/2/4 290/2/4 294/2/4
f 291/4/4 292/4/4 295/4/4
f 293/4/4 294/4/4 297/4/4
f 286/2/4 293/2/4 297/2/4
f 297/4/4 294/4/4 298/4/4
f 295/4/4 296/4/4 299/4/4
f 291/4/4 295/4/4 299/4/4
f 299/4/4 296/4/4 300/4/4
f 291/4/4 299/4/4 301/4/4
f 301/4/4 299/4/4 302/4/4
f 297/2/4 298/2/4 303/2/4
f 286/2/4 297/2/4 303/2/4
f 303/2/4 298/2/4 304/2/4
f 305/2/4 306/2/4 307/2/4
f 307/2/4 306/2/4 308/2/4
f 309/2/4 310/2/4 311/2/4
f 311/2/4 310/2/4 312/2/4
f 313/2/4 314/2/4 315/2/4
f 315/2/4 314/2/4 316/2/4
f 317/4/4 318/4/4 320/4/4
f 320/4/4 318/4/4 321/4/4
f 319/4/4 320/4/4 323/4/4
f 323/4/4 320/4/4 324/4/4
f 321/4/4 322/4/4 325/4/4
f 325/4/4 322/4/4 326/4/4
f 327/2/4 328/2/4 329/2/4
f 329/2/4 328/2/4 330/2/4
f 330/2/4 328/2/4 331/2/4
f 331/2/4 332/2/4 333/2/4
f 330/2/4 331/2/4 333/2/4
f 333/2/4 332/2/4 334/2/4
f 334/2/4 332/2/4 335/2/4
f 335/2/4 336/2/4 337/2/4
f 334/2/4 335/2/4 337/2/4
f 337/2/4 336/2/4 338/2/4
f 338/2/4 336/2/4 339/2/4
f 339/1/4 340/1/4 341/1/4
f 338/1/4 339/1/4 341/1/4
f 341/1/4 340/1/4 342/1/4
f 342/1/4 340/1/4 343/1/4
f 342/1/4 343/1/4 346/1/4
f 343/1/4 344/1/4 346/1/4
f 346/1/4 344/1/4 347/1/4
f 345/1/4 346/1/4 349/1/4
f 347/1/4 348/1/4 349/1/4
f 346/1/4 347/1/4 349/1/4
f 349/1/4 348/1/4 350/1/4
f 351/2/4 352/2/4 354/2/4
f 354/2/4 352/2/4 355/2/4
f 356/4/4 357/4/4 358/4/4
f 358/4/4 357/4/4 359/4/4
f 353/2/4 354/2/4 360/2/4
f 360/2/4 354/2/4 361/2/4
f 361/2/4 362/2/4 363/2/4
f 363/2/4 362/2/4 364/2/4
f 365/2/4 366/2/4 367/2/4
f 367/2/4 366/2/4 368/2/4
f 365/2/4 367/2/4 370/2/4
f 368/4/4 369/4/4 371/4/4
f 370/2/4 367/2/4 371/2/4
f 367/4/4 368/4/4 371/4/4
f 371/4/4 369/4/4 372/4/4
f 365/2/4 370/2/4 374/2/4
f 372/4/4 373/4/4 374/4/4
f 371/4/4 372/4/4 374/4/4
f 370/4/4 371/4/4 374/4/4
f 374/4/4 373/4/4 375/4/4
f 375/4/4 373/4/4 376/4/4
f 376/4/4 373/4/4 377/4/4
f 374/2/4 375/2/4 378/2/4
f 375/4/4 376/4/4 378/4/4
f 378/4/4 376/4/4 379/4/4
f 379/4/4 376/4/4 380/4/4
f 365/2/4 374/2/4 381/2/4
f 374/2/4 378/2/4 381/2/4
f 378/2/4 379/2/4 381/2/4
f 381/2/4 379/2/4 382/2/4
f 385/2/5 384/2/5 383/2/5
f 386/2/5 384/2/5 385/2/5
f 390/2/5 388/2/5 387/2/5
f 391/2/5 388/2/5 390/2/5
f 393/2/5 390/2/5 389/2/5
f 394/2/5 390/2/5 393/2/5
f 395/2/5 392/2/5 391/2/5
f 396/2/5 392/2/5 395/2/5
f 397/2/5 395/2/5 394/2/5
f 398/2/5 395/2/5 397/2/5
f 401/4/5 400/4/5 399/4/5
f 402/4/5 400/4/5 401/4/5
f 407/4/5 404/4/5 403/4/5
f 408/4/5 404/4/5 407/4/5
f 409/2/5 406/2/5 405/2/5
f 410/2/5 406/2/5 409/2/5
f 413/2/5 412/2/5 411/2/5
f 414/2/5 412/2/5 413/2/5
f 417/2/5 416/2/5 415/2/5
f 418/2/5 416/2/5 417/2/5
f 423/1/5 420/1/5 419/1/5
f 424/1/5 420/1/5 423/1/5
f 425/1/5 422/1/5 421/1/5
f 426/1/5 422/1/5 425/1/5
f 431/4/5 428/4/5 427/4/5
f 432/4/5 428/4/5 431/4/5
f 433/1/5 430/1/5 429/1/5
f 434/1/5 430/1/5 433/1/5
f 441/2/5 436/2/5 435/2/5
f 442/2/5 436/2/5 441/2/5
f 443/2/5 440/2/5 439/2/5
f 443/2/5 438/2/5 437/2/5
f 443/2/5 439/2/5 438/2/5
f 444/2/5 440/2/5 443/2/5
f 445/2/5 440/2/5 444/2/5
f 446/2/5 440/2/5 445/2/5
f 448/2/5 440/2/5 446/2/5
f 452/2/5 448/2/5 447/2/5
f 453/2/5 450/2/5 449/2/5
f 454/2/5 450/2/5 453/2/5
f 455/2/5 452/2/5 451/2/5
f 456/2/5 448/2/5 452/2/5
f 456/2/5 452/2/5 455/2/5
f 457/2/5 440/2/5 448/2/5
f 457/2/5 448/2/5 456/2/5
f 458/2/5 440/2/5 457/2/5
f 461/4/5 460/4/5 459/4/5
f 462/4/5 460/4/5 461/4/5
f 463/4/6 464/4/6 465/4/6
f 465/4/6 464/4/6 466/4/6
f 467/4/6 468/4/6 469/4/6
f 469/4/6 468/4/6 470/4/6
f 471/2/6 472/2/6 473/2/6
f 473/2/6 472/2/6 474/2/6
f 475/2/6 476/2/6 477/2/6
f 477/2/6 476/2/6 478/2/6
f 481/2/6 482/2/6 483/2/6
f 481/2/6 483/2/6 484/2/6
f 479/4/6 480/4/6 485/4/6
f 485/4/6 480/4/6 486/4/6
f 481/2/6 484/2/6 487/2/6
f 487/2/6 484/2/6 488/2/6
f 491/1/6 492/1/6 493/1/6
f 493/1/6 492/1/6 494/1/6
f 493/2/6 494/2/6 495/2/6
f 495/2/6 494/2/6 496/2/6
f 489/4/6 490/4/6 497/4/6
f 497/4/6 490/4/6 498/4/6
f 495/1/6 496/1/6 499/1/6
f 499/1/6 496/1/6 500/1/6
f 501/2/6 502/2/6 506/2/6
f 506/2/6 502/2/6 507/2/6
f 507/2/6 502/2/6 508/2/6
f 503/2/6 504/2/6 509/2/6
f 509/2/6 504/2/6 510/2/6
f 505/2/6 506/2/6 512/2/6
f 506/2/6 507/2/6 512/2/6
f 512/2/6 507/2/6 513/2/6
f 510/2/6 511/2/6 514/2/6
f 509/2/6 510/2/6 514/2/6
f 508/2/6 509/2/6 514/2/6
f 514/2/6 511/2/6 515/2/6
f 515/2/6 511/2/6 518/2/6
f 518/2/6 511/2/6 519/2/6
f 519/2/6 511/2/6 521/2/6
f 505/2/6 512/2/6 522/2/6
f 520/2/6 521/2/6 525/2/6
f 516/1/6 517/1/6 526/1/6
f 526/1/6 517/1/6 527/1/6
f 522/2/6 523/2/6 528/2/6
f 505/2/6 522/2/6 528/2/6
f 528/2/6 523/2/6 529/2/6
f 529/2/6 523/2/6 530/2/6
f 524/2/6 525/2/6 531/2/6
f 521/2/6 511/2/6 532/2/6
f 525/2/6 521/2/6 532/2/6
f 531/2/6 525/2/6 532/2/6
f 532/2/6 511/2/6 533/2/6
f 533/2/6 511/2/6 534/2/6
f 529/2/6 530/2/6 535/2/6
f 530/2/6 531/2/6 535/2/6
f 535/2/6 531/2/6 536/2/6
f 532/2/6 533/2/6 537/2/6
f 537/2/6 533/2/6 538/2/6
f 539/4/6 540/4/6 543/4/6
f 543/4/6 540/4/6 544/4/6
f 541/4/6 542/4/6 545/4/6
f 545/4/6 542/4/6 546/4/6
f 547/1/6 548/1/6 549/1/6
f 549/1/6 548/1/6 550/1/6
f 551/4/6 552/4/6 555/4/6
f 555/4/6 552/4/6 556/4/6
f 553/4/6 554/4/6 557/4/6
f 557/4/6 554/4/6 558/4/6
f 559/4/6 560/4/6 561/4/6
f 561/4/6 560/4/6 562/4/6
f 563/4/6 564/4/6 565/4/6
f 565/4/6 564/4/6 566/4/6
f 567/4/6 568/4/6 569/4/6
f 569/4/6 568/4/6 570/4/6
