# MagicaVoxel @ Ephtracy

# group
o 

# material
mtllib corn1.mtl
usemtl palette

# normals
vn -1 0 0
vn 1 0 0
vn 0 0 1
vn 0 0 -1
vn 0 -1 0
vn 0 1 0

# texcoords
vt 0.0214844 0.5
vt 0.654297 0.5

# verts
v -1.6 0 1.6
v -1.6 0 1.4
v -1.6 0.1 1.6
v -1.6 0.1 1.4
v -1.4 0 -0.1
v -1.4 0 -0.3
v -1.4 0.1 -0.1
v -1.4 0.1 -0.3
v -1.2 0 -1
v -1.2 0 -1.2
v -1.2 0.1 -1
v -1.2 0.1 -1.2
v -0.9 0 0.5
v -0.9 0 0.3
v -0.9 0.1 0.5
v -0.9 0.1 0.3
v -0.6 0 -0.9
v -0.6 0 -1.1
v -0.6 0.1 -0.9
v -0.6 0.1 -1.1
v -0.5 0 1.5
v -0.5 0 1.4
v -0.5 0 1.3
v -0.5 0.1 1.5
v -0.5 0.1 1.4
v -0.5 0.1 1.3
v -0.3 0 -0.1
v -0.3 0 -0.2
v -0.3 0 -0.3
v -0.3 0.1 -0.1
v -0.3 0.1 -0.2
v -0.3 0.1 -0.3
v -0.2 0 0.8
v -0.2 0 0.6
v -0.2 0.1 0.8
v -0.2 0.1 0.6
v 0.2 0 -1.3
v 0.2 0 -1.4
v 0.2 0 -1.5
v 0.2 0.1 -1.3
v 0.2 0.1 -1.4
v 0.2 0.1 -1.5
v 0.3 0 0.4
v 0.3 0 0.2
v 0.3 0.1 0.4
v 0.3 0.1 0.2
v 0.5 0 1.6
v 0.5 0 1.5
v 0.5 0 1.4
v 0.5 0.1 1.6
v 0.5 0.1 1.5
v 0.5 0.1 1.4
v 0.7 0 -0.6
v 0.7 0 -0.7
v 0.7 0 -0.8
v 0.7 0 -0.9
v 0.7 0.1 -0.6
v 0.7 0.1 -0.7
v 0.7 0.1 -0.8
v 0.7 0.1 -0.9
v 1.2 0 1
v 1.2 0 0.9
v 1.2 0 0.8
v 1.2 0 0.2
v 1.2 0 0.1
v 1.2 0 0
v 1.2 0.1 1
v 1.2 0.1 0.9
v 1.2 0.1 0.8
v 1.2 0.1 0.2
v 1.2 0.1 0.1
v 1.2 0.1 0
v 1.5 0 -0.8
v 1.5 0 -0.9
v 1.5 0 -1
v 1.5 0.1 -0.8
v 1.5 0.1 -0.9
v 1.5 0.1 -1
v -1.4 0 1.6
v -1.4 0 1.5
v -1.4 0 1.4
v -1.4 0.1 1.6
v -1.4 0.1 1.5
v -1.4 0.1 1.4
v -1.3 0 -0.1
v -1.3 0 -0.2
v -1.3 0.1 -0.1
v -1.3 0.1 -0.2
v -1.2 0 -0.2
v -1.2 0 -0.3
v -1.2 0.1 -0.2
v -1.2 0.1 -0.3
v -1 0 -1
v -1 0 -1.1
v -1 0 -1.2
v -1 0.1 -1
v -1 0.1 -1.1
v -1 0.1 -1.2
v -0.7 0 0.5
v -0.7 0 0.4
v -0.7 0 0.3
v -0.7 0.1 0.5
v -0.7 0.1 0.4
v -0.7 0.1 0.3
v -0.4 0 -0.9
v -0.4 0 -1
v -0.4 0 -1.1
v -0.4 0.1 -0.9
v -0.4 0.1 -1
v -0.4 0.1 -1.1
v -0.3 0 1.5
v -0.3 0 1.3
v -0.3 0.1 1.5
v -0.3 0.1 1.3
v -0.1 0 -0.1
v -0.1 0 -0.3
v -0.1 0.1 -0.1
v -0.1 0.1 -0.3
v 0 0 0.8
v 0 0 0.7
v 0 0 0.6
v 0 0.1 0.8
v 0 0.1 0.7
v 0 0.1 0.6
v 0.4 0 -1.3
v 0.4 0 -1.5
v 0.4 0.1 -1.3
v 0.4 0.1 -1.5
v 0.5 0 0.4
v 0.5 0 0.3
v 0.5 0 0.2
v 0.5 0.1 0.4
v 0.5 0.1 0.3
v 0.5 0.1 0.2
v 0.7 0 1.6
v 0.7 0 1.4
v 0.7 0.1 1.6
v 0.7 0.1 1.4
v 0.9 0 -0.6
v 0.9 0 -0.9
v 0.9 0.1 -0.6
v 0.9 0.1 -0.9
v 1.4 0 1
v 1.4 0 0.8
v 1.4 0 0.2
v 1.4 0 0
v 1.4 0.1 1
v 1.4 0.1 0.8
v 1.4 0.1 0.2
v 1.4 0.1 0
v 1.7 0 -0.8
v 1.7 0 -1
v 1.7 0.1 -0.8
v 1.7 0.1 -1
v -1.6 0 1.6
v -1.6 0.1 1.6
v -1.4 0 1.6
v -1.4 0.1 1.6
v 0.5 0 1.6
v 0.5 0.1 1.6
v 0.7 0 1.6
v 0.7 0.1 1.6
v -0.5 0 1.5
v -0.5 0.1 1.5
v -0.3 0 1.5
v -0.3 0.1 1.5
v 1.2 0 1
v 1.2 0.1 1
v 1.4 0 1
v 1.4 0.1 1
v -0.2 0 0.8
v -0.2 0.1 0.8
v -0.1 0 0.8
v -0.1 0.1 0.8
v 0 0 0.8
v 0 0.1 0.8
v -0.9 0 0.5
v -0.9 0.1 0.5
v -0.7 0 0.5
v -0.7 0.1 0.5
v 0.3 0 0.4
v 0.3 0.1 0.4
v 0.4 0 0.4
v 0.4 0.1 0.4
v 0.5 0 0.4
v 0.5 0.1 0.4
v 1.2 0 0.2
v 1.2 0.1 0.2
v 1.4 0 0.2
v 1.4 0.1 0.2
v -1.4 0 -0.1
v -1.4 0.1 -0.1
v -1.3 0 -0.1
v -1.3 0.1 -0.1
v -0.3 0 -0.1
v -0.3 0.1 -0.1
v -0.2 0 -0.1
v -0.2 0.1 -0.1
v -0.1 0 -0.1
v -0.1 0.1 -0.1
v -1.3 0 -0.2
v -1.3 0.1 -0.2
v -1.2 0 -0.2
v -1.2 0.1 -0.2
v 0.7 0 -0.6
v 0.7 0.1 -0.6
v 0.8 0 -0.6
v 0.8 0.1 -0.6
v 0.9 0 -0.6
v 0.9 0.1 -0.6
v 1.5 0 -0.8
v 1.5 0.1 -0.8
v 1.7 0 -0.8
v 1.7 0.1 -0.8
v -0.6 0 -0.9
v -0.6 0.1 -0.9
v -0.4 0 -0.9
v -0.4 0.1 -0.9
v -1.2 0 -1
v -1.2 0.1 -1
v -1 0 -1
v -1 0.1 -1
v 0.2 0 -1.3
v 0.2 0.1 -1.3
v 0.4 0 -1.3
v 0.4 0.1 -1.3
v -1.6 0 1.4
v -1.6 0.1 1.4
v -1.5 0 1.4
v -1.5 0.1 1.4
v -1.4 0 1.4
v -1.4 0.1 1.4
v 0.5 0 1.4
v 0.5 0.1 1.4
v 0.6 0 1.4
v 0.6 0.1 1.4
v 0.7 0 1.4
v 0.7 0.1 1.4
v -0.5 0 1.3
v -0.5 0.1 1.3
v -0.4 0 1.3
v -0.4 0.1 1.3
v -0.3 0 1.3
v -0.3 0.1 1.3
v 1.2 0 0.8
v 1.2 0.1 0.8
v 1.3 0 0.8
v 1.3 0.1 0.8
v 1.4 0 0.8
v 1.4 0.1 0.8
v -0.2 0 0.6
v -0.2 0.1 0.6
v 0 0 0.6
v 0 0.1 0.6
v -0.9 0 0.3
v -0.9 0.1 0.3
v -0.8 0 0.3
v -0.8 0.1 0.3
v -0.7 0 0.3
v -0.7 0.1 0.3
v 0.3 0 0.2
v 0.3 0.1 0.2
v 0.5 0 0.2
v 0.5 0.1 0.2
v 1.2 0 0
v 1.2 0.1 0
v 1.3 0 0
v 1.3 0.1 0
v 1.4 0 0
v 1.4 0.1 0
v -1.4 0 -0.3
v -1.4 0.1 -0.3
v -1.3 0 -0.3
v -1.3 0.1 -0.3
v -1.2 0 -0.3
v -1.2 0.1 -0.3
v -0.3 0 -0.3
v -0.3 0.1 -0.3
v -0.1 0 -0.3
v -0.1 0.1 -0.3
v 0.7 0 -0.9
v 0.7 0.1 -0.9
v 0.8 0 -0.9
v 0.8 0.1 -0.9
v 0.9 0 -0.9
v 0.9 0.1 -0.9
v 1.5 0 -1
v 1.5 0.1 -1
v 1.6 0 -1
v 1.6 0.1 -1
v 1.7 0 -1
v 1.7 0.1 -1
v -0.6 0 -1.1
v -0.6 0.1 -1.1
v -0.5 0 -1.1
v -0.5 0.1 -1.1
v -0.4 0 -1.1
v -0.4 0.1 -1.1
v -1.2 0 -1.2
v -1.2 0.1 -1.2
v -1.1 0 -1.2
v -1.1 0.1 -1.2
v -1 0 -1.2
v -1 0.1 -1.2
v 0.2 0 -1.5
v 0.2 0.1 -1.5
v 0.3 0 -1.5
v 0.3 0.1 -1.5
v 0.4 0 -1.5
v 0.4 0.1 -1.5
v -1.6 0 1.6
v -1.4 0 1.6
v 0.5 0 1.6
v 0.7 0 1.6
v -1.5 0 1.5
v -1.4 0 1.5
v -0.5 0 1.5
v -0.3 0 1.5
v 0.5 0 1.5
v 0.6 0 1.5
v -1.6 0 1.4
v -1.5 0 1.4
v -1.4 0 1.4
v -0.5 0 1.4
v -0.4 0 1.4
v 0.5 0 1.4
v 0.6 0 1.4
v 0.7 0 1.4
v -0.5 0 1.3
v -0.4 0 1.3
v -0.3 0 1.3
v 1.2 0 1
v 1.4 0 1
v 1.2 0 0.9
v 1.3 0 0.9
v -0.2 0 0.8
v -0.1 0 0.8
v 0 0 0.8
v 1.2 0 0.8
v 1.3 0 0.8
v 1.4 0 0.8
v -0.1 0 0.7
v 0 0 0.7
v -0.2 0 0.6
v 0 0 0.6
v -0.9 0 0.5
v -0.7 0 0.5
v -0.8 0 0.4
v -0.7 0 0.4
v 0.3 0 0.4
v 0.4 0 0.4
v 0.5 0 0.4
v -0.9 0 0.3
v -0.8 0 0.3
v -0.7 0 0.3
v 0.4 0 0.3
v 0.5 0 0.3
v 0.3 0 0.2
v 0.5 0 0.2
v 1.2 0 0.2
v 1.4 0 0.2
v 1.2 0 0.1
v 1.3 0 0.1
v 1.2 0 0
v 1.3 0 0
v 1.4 0 0
v -1.4 0 -0.1
v -1.3 0 -0.1
v -0.3 0 -0.1
v -0.2 0 -0.1
v -0.1 0 -0.1
v -1.3 0 -0.2
v -1.2 0 -0.2
v -0.3 0 -0.2
v -0.2 0 -0.2
v -1.4 0 -0.3
v -1.3 0 -0.3
v -1.2 0 -0.3
v -0.3 0 -0.3
v -0.1 0 -0.3
v 0.7 0 -0.6
v 0.8 0 -0.6
v 0.9 0 -0.6
v 0.7 0 -0.7
v 0.8 0 -0.7
v 0.7 0 -0.8
v 0.8 0 -0.8
v 1.5 0 -0.8
v 1.7 0 -0.8
v -0.6 0 -0.9
v -0.4 0 -0.9
v 0.7 0 -0.9
v 0.8 0 -0.9
v 0.9 0 -0.9
v 1.5 0 -0.9
v 1.6 0 -0.9
v -1.2 0 -1
v -1 0 -1
v -0.5 0 -1
v -0.4 0 -1
v 1.5 0 -1
v 1.6 0 -1
v 1.7 0 -1
v -1.1 0 -1.1
v -1 0 -1.1
v -0.6 0 -1.1
v -0.5 0 -1.1
v -0.4 0 -1.1
v -1.2 0 -1.2
v -1.1 0 -1.2
v -1 0 -1.2
v 0.2 0 -1.3
v 0.4 0 -1.3
v 0.2 0 -1.4
v 0.3 0 -1.4
v 0.2 0 -1.5
v 0.3 0 -1.5
v 0.4 0 -1.5
v -1.6 0.1 1.6
v -1.4 0.1 1.6
v 0.5 0.1 1.6
v 0.7 0.1 1.6
v -1.5 0.1 1.5
v -1.4 0.1 1.5
v -0.5 0.1 1.5
v -0.3 0.1 1.5
v 0.5 0.1 1.5
v 0.6 0.1 1.5
v -1.6 0.1 1.4
v -1.5 0.1 1.4
v -1.4 0.1 1.4
v -0.5 0.1 1.4
v -0.4 0.1 1.4
v 0.5 0.1 1.4
v 0.6 0.1 1.4
v 0.7 0.1 1.4
v -0.5 0.1 1.3
v -0.4 0.1 1.3
v -0.3 0.1 1.3
v 1.2 0.1 1
v 1.4 0.1 1
v 1.2 0.1 0.9
v 1.3 0.1 0.9
v -0.2 0.1 0.8
v -0.1 0.1 0.8
v 0 0.1 0.8
v 1.2 0.1 0.8
v 1.3 0.1 0.8
v 1.4 0.1 0.8
v -0.1 0.1 0.7
v 0 0.1 0.7
v -0.2 0.1 0.6
v 0 0.1 0.6
v -0.9 0.1 0.5
v -0.7 0.1 0.5
v -0.8 0.1 0.4
v -0.7 0.1 0.4
v 0.3 0.1 0.4
v 0.4 0.1 0.4
v 0.5 0.1 0.4
v -0.9 0.1 0.3
v -0.8 0.1 0.3
v -0.7 0.1 0.3
v 0.4 0.1 0.3
v 0.5 0.1 0.3
v 0.3 0.1 0.2
v 0.5 0.1 0.2
v 1.2 0.1 0.2
v 1.4 0.1 0.2
v 1.2 0.1 0.1
v 1.3 0.1 0.1
v 1.2 0.1 0
v 1.3 0.1 0
v 1.4 0.1 0
v -1.4 0.1 -0.1
v -1.3 0.1 -0.1
v -0.3 0.1 -0.1
v -0.2 0.1 -0.1
v -0.1 0.1 -0.1
v -1.3 0.1 -0.2
v -1.2 0.1 -0.2
v -0.3 0.1 -0.2
v -0.2 0.1 -0.2
v -1.4 0.1 -0.3
v -1.3 0.1 -0.3
v -1.2 0.1 -0.3
v -0.3 0.1 -0.3
v -0.1 0.1 -0.3
v 0.7 0.1 -0.6
v 0.8 0.1 -0.6
v 0.9 0.1 -0.6
v 0.7 0.1 -0.7
v 0.8 0.1 -0.7
v 0.7 0.1 -0.8
v 0.8 0.1 -0.8
v 1.5 0.1 -0.8
v 1.7 0.1 -0.8
v -0.6 0.1 -0.9
v -0.4 0.1 -0.9
v 0.7 0.1 -0.9
v 0.8 0.1 -0.9
v 0.9 0.1 -0.9
v 1.5 0.1 -0.9
v 1.6 0.1 -0.9
v -1.2 0.1 -1
v -1 0.1 -1
v -0.5 0.1 -1
v -0.4 0.1 -1
v 1.5 0.1 -1
v 1.6 0.1 -1
v 1.7 0.1 -1
v -1.1 0.1 -1.1
v -1 0.1 -1.1
v -0.6 0.1 -1.1
v -0.5 0.1 -1.1
v -0.4 0.1 -1.1
v -1.2 0.1 -1.2
v -1.1 0.1 -1.2
v -1 0.1 -1.2
v 0.2 0.1 -1.3
v 0.4 0.1 -1.3
v 0.2 0.1 -1.4
v 0.3 0.1 -1.4
v 0.2 0.1 -1.5
v 0.3 0.1 -1.5
v 0.4 0.1 -1.5

# faces
f 3/2/1 2/2/1 1/2/1
f 4/2/1 2/2/1 3/2/1
f 7/2/1 6/2/1 5/2/1
f 8/2/1 6/2/1 7/2/1
f 11/2/1 10/2/1 9/2/1
f 12/2/1 10/2/1 11/2/1
f 15/2/1 14/2/1 13/2/1
f 16/2/1 14/2/1 15/2/1
f 19/2/1 18/2/1 17/2/1
f 20/2/1 18/2/1 19/2/1
f 24/2/1 22/2/1 21/2/1
f 25/1/1 23/1/1 22/1/1
f 25/2/1 22/2/1 24/2/1
f 26/1/1 23/1/1 25/1/1
f 30/1/1 28/1/1 27/1/1
f 31/2/1 29/2/1 28/2/1
f 31/1/1 28/1/1 30/1/1
f 32/2/1 29/2/1 31/2/1
f 35/2/1 34/2/1 33/2/1
f 36/2/1 34/2/1 35/2/1
f 40/2/1 38/2/1 37/2/1
f 41/1/1 39/1/1 38/1/1
f 41/2/1 38/2/1 40/2/1
f 42/1/1 39/1/1 41/1/1
f 45/2/1 44/2/1 43/2/1
f 46/2/1 44/2/1 45/2/1
f 50/2/1 48/2/1 47/2/1
f 51/1/1 49/1/1 48/1/1
f 51/2/1 48/2/1 50/2/1
f 52/1/1 49/1/1 51/1/1
f 57/1/1 54/1/1 53/1/1
f 58/2/1 55/2/1 54/2/1
f 58/1/1 54/1/1 57/1/1
f 59/1/1 56/1/1 55/1/1
f 59/2/1 55/2/1 58/2/1
f 60/1/1 56/1/1 59/1/1
f 67/2/1 62/2/1 61/2/1
f 68/1/1 63/1/1 62/1/1
f 68/2/1 62/2/1 67/2/1
f 69/1/1 63/1/1 68/1/1
f 70/2/1 65/2/1 64/2/1
f 71/1/1 66/1/1 65/1/1
f 71/2/1 65/2/1 70/2/1
f 72/1/1 66/1/1 71/1/1
f 76/2/1 74/2/1 73/2/1
f 77/1/1 75/1/1 74/1/1
f 77/2/1 74/2/1 76/2/1
f 78/1/1 75/1/1 77/1/1
f 79/2/2 80/2/2 82/2/2
f 80/1/2 81/1/2 83/1/2
f 82/2/2 80/2/2 83/2/2
f 83/1/2 81/1/2 84/1/2
f 85/2/2 86/2/2 87/2/2
f 87/2/2 86/2/2 88/2/2
f 89/1/2 90/1/2 91/1/2
f 91/1/2 90/1/2 92/1/2
f 93/2/2 94/2/2 96/2/2
f 94/1/2 95/1/2 97/1/2
f 96/2/2 94/2/2 97/2/2
f 97/1/2 95/1/2 98/1/2
f 99/2/2 100/2/2 102/2/2
f 100/1/2 101/1/2 103/1/2
f 102/2/2 100/2/2 103/2/2
f 103/1/2 101/1/2 104/1/2
f 105/2/2 106/2/2 108/2/2
f 106/1/2 107/1/2 109/1/2
f 108/2/2 106/2/2 109/2/2
f 109/1/2 107/1/2 110/1/2
f 111/2/2 112/2/2 113/2/2
f 113/2/2 112/2/2 114/2/2
f 115/2/2 116/2/2 117/2/2
f 117/2/2 116/2/2 118/2/2
f 119/1/2 120/1/2 122/1/2
f 120/2/2 121/2/2 123/2/2
f 122/1/2 120/1/2 123/1/2
f 123/2/2 121/2/2 124/2/2
f 125/2/2 126/2/2 127/2/2
f 127/2/2 126/2/2 128/2/2
f 129/1/2 130/1/2 132/1/2
f 130/2/2 131/2/2 133/2/2
f 132/1/2 130/1/2 133/1/2
f 133/2/2 131/2/2 134/2/2
f 135/2/2 136/2/2 137/2/2
f 137/2/2 136/2/2 138/2/2
f 139/2/2 140/2/2 141/2/2
f 141/2/2 140/2/2 142/2/2
f 143/2/2 144/2/2 147/2/2
f 147/2/2 144/2/2 148/2/2
f 145/2/2 146/2/2 149/2/2
f 149/2/2 146/2/2 150/2/2
f 151/2/2 152/2/2 153/2/2
f 153/2/2 152/2/2 154/2/2
f 157/2/3 156/2/3 155/2/3
f 158/2/3 156/2/3 157/2/3
f 161/2/3 160/2/3 159/2/3
f 162/2/3 160/2/3 161/2/3
f 165/2/3 164/2/3 163/2/3
f 166/2/3 164/2/3 165/2/3
f 169/2/3 168/2/3 167/2/3
f 170/2/3 168/2/3 169/2/3
f 173/2/3 172/2/3 171/2/3
f 174/2/3 172/2/3 173/2/3
f 175/1/3 174/1/3 173/1/3
f 176/1/3 174/1/3 175/1/3
f 179/2/3 178/2/3 177/2/3
f 180/2/3 178/2/3 179/2/3
f 183/2/3 182/2/3 181/2/3
f 184/2/3 182/2/3 183/2/3
f 185/1/3 184/1/3 183/1/3
f 186/1/3 184/1/3 185/1/3
f 189/2/3 188/2/3 187/2/3
f 190/2/3 188/2/3 189/2/3
f 193/2/3 192/2/3 191/2/3
f 194/2/3 192/2/3 193/2/3
f 197/1/3 196/1/3 195/1/3
f 198/1/3 196/1/3 197/1/3
f 199/2/3 198/2/3 197/2/3
f 200/2/3 198/2/3 199/2/3
f 203/1/3 202/1/3 201/1/3
f 204/1/3 202/1/3 203/1/3
f 207/1/3 206/1/3 205/1/3
f 208/1/3 206/1/3 207/1/3
f 209/2/3 208/2/3 207/2/3
f 210/2/3 208/2/3 209/2/3
f 213/2/3 212/2/3 211/2/3
f 214/2/3 212/2/3 213/2/3
f 217/2/3 216/2/3 215/2/3
f 218/2/3 216/2/3 217/2/3
f 221/2/3 220/2/3 219/2/3
f 222/2/3 220/2/3 221/2/3
f 225/2/3 224/2/3 223/2/3
f 226/2/3 224/2/3 225/2/3
f 227/2/4 228/2/4 229/2/4
f 229/2/4 228/2/4 230/2/4
f 229/1/4 230/1/4 231/1/4
f 231/1/4 230/1/4 232/1/4
f 233/1/4 234/1/4 235/1/4
f 235/1/4 234/1/4 236/1/4
f 235/2/4 236/2/4 237/2/4
f 237/2/4 236/2/4 238/2/4
f 239/1/4 240/1/4 241/1/4
f 241/1/4 240/1/4 242/1/4
f 241/2/4 242/2/4 243/2/4
f 243/2/4 242/2/4 244/2/4
f 245/1/4 246/1/4 247/1/4
f 247/1/4 246/1/4 248/1/4
f 247/2/4 248/2/4 249/2/4
f 249/2/4 248/2/4 250/2/4
f 251/2/4 252/2/4 253/2/4
f 253/2/4 252/2/4 254/2/4
f 255/2/4 256/2/4 257/2/4
f 257/2/4 256/2/4 258/2/4
f 257/1/4 258/1/4 259/1/4
f 259/1/4 258/1/4 260/1/4
f 261/2/4 262/2/4 263/2/4
f 263/2/4 262/2/4 264/2/4
f 265/1/4 266/1/4 267/1/4
f 267/1/4 266/1/4 268/1/4
f 267/2/4 268/2/4 269/2/4
f 269/2/4 268/2/4 270/2/4
f 271/2/4 272/2/4 273/2/4
f 273/2/4 272/2/4 274/2/4
f 273/1/4 274/1/4 275/1/4
f 275/1/4 274/1/4 276/1/4
f 277/2/4 278/2/4 279/2/4
f 279/2/4 278/2/4 280/2/4
f 281/1/4 282/1/4 283/1/4
f 283/1/4 282/1/4 284/1/4
f 283/2/4 284/2/4 285/2/4
f 285/2/4 284/2/4 286/2/4
f 287/1/4 288/1/4 289/1/4
f 289/1/4 288/1/4 290/1/4
f 289/2/4 290/2/4 291/2/4
f 291/2/4 290/2/4 292/2/4
f 293/2/4 294/2/4 295/2/4
f 295/2/4 294/2/4 296/2/4
f 295/1/4 296/1/4 297/1/4
f 297/1/4 296/1/4 298/1/4
f 299/2/4 300/2/4 301/2/4
f 301/2/4 300/2/4 302/2/4
f 301/1/4 302/1/4 303/1/4
f 303/1/4 302/1/4 304/1/4
f 305/1/4 306/1/4 307/1/4
f 307/1/4 306/1/4 308/1/4
f 307/2/4 308/2/4 309/2/4
f 309/2/4 308/2/4 310/2/4
f 315/2/5 312/2/5 311/2/5
f 316/2/5 312/2/5 315/2/5
f 319/2/5 314/2/5 313/2/5
f 320/2/5 314/2/5 319/2/5
f 321/2/5 315/2/5 311/2/5
f 322/1/5 316/1/5 315/1/5
f 322/2/5 315/2/5 321/2/5
f 323/1/5 316/1/5 322/1/5
f 324/2/5 318/2/5 317/2/5
f 325/2/5 318/2/5 324/2/5
f 326/1/5 320/1/5 319/1/5
f 327/2/5 314/2/5 320/2/5
f 327/1/5 320/1/5 326/1/5
f 328/2/5 314/2/5 327/2/5
f 329/1/5 325/1/5 324/1/5
f 330/2/5 318/2/5 325/2/5
f 330/1/5 325/1/5 329/1/5
f 331/2/5 318/2/5 330/2/5
f 334/2/5 333/2/5 332/2/5
f 335/2/5 333/2/5 334/2/5
f 339/1/5 335/1/5 334/1/5
f 340/2/5 333/2/5 335/2/5
f 340/1/5 335/1/5 339/1/5
f 341/2/5 333/2/5 340/2/5
f 342/1/5 338/1/5 337/1/5
f 342/2/5 337/2/5 336/2/5
f 343/1/5 338/1/5 342/1/5
f 344/2/5 342/2/5 336/2/5
f 344/2/5 343/2/5 342/2/5
f 345/2/5 343/2/5 344/2/5
f 348/2/5 347/2/5 346/2/5
f 349/2/5 347/2/5 348/2/5
f 353/2/5 348/2/5 346/2/5
f 354/1/5 349/1/5 348/1/5
f 354/2/5 348/2/5 353/2/5
f 355/1/5 349/1/5 354/1/5
f 356/1/5 352/1/5 351/1/5
f 356/2/5 351/2/5 350/2/5
f 357/1/5 352/1/5 356/1/5
f 358/2/5 357/2/5 356/2/5
f 358/2/5 356/2/5 350/2/5
f 359/2/5 357/2/5 358/2/5
f 362/2/5 361/2/5 360/2/5
f 363/2/5 361/2/5 362/2/5
f 364/1/5 363/1/5 362/1/5
f 365/2/5 361/2/5 363/2/5
f 365/1/5 363/1/5 364/1/5
f 366/2/5 361/2/5 365/2/5
f 372/2/5 368/2/5 367/2/5
f 374/1/5 370/1/5 369/1/5
f 375/2/5 371/2/5 370/2/5
f 375/1/5 370/1/5 374/1/5
f 376/2/5 372/2/5 367/2/5
f 377/1/5 373/1/5 372/1/5
f 377/2/5 372/2/5 376/2/5
f 378/1/5 373/1/5 377/1/5
f 379/2/5 375/2/5 374/2/5
f 380/2/5 371/2/5 375/2/5
f 380/2/5 375/2/5 379/2/5
f 384/1/5 382/1/5 381/1/5
f 385/2/5 383/2/5 382/2/5
f 385/1/5 382/1/5 384/1/5
f 386/2/5 385/2/5 384/2/5
f 387/2/5 383/2/5 385/2/5
f 387/2/5 385/2/5 386/2/5
f 392/1/5 387/1/5 386/1/5
f 393/2/5 383/2/5 387/2/5
f 393/1/5 387/1/5 392/1/5
f 394/2/5 383/2/5 393/2/5
f 395/2/5 389/2/5 388/2/5
f 396/2/5 389/2/5 395/2/5
f 399/2/5 391/2/5 390/2/5
f 400/2/5 391/2/5 399/2/5
f 401/1/5 396/1/5 395/1/5
f 402/2/5 389/2/5 396/2/5
f 402/1/5 396/1/5 401/1/5
f 403/2/5 389/2/5 402/2/5
f 404/2/5 398/2/5 397/2/5
f 405/2/5 398/2/5 404/2/5
f 406/2/5 399/2/5 390/2/5
f 407/1/5 400/1/5 399/1/5
f 407/2/5 399/2/5 406/2/5
f 408/1/5 400/1/5 407/1/5
f 409/2/5 404/2/5 397/2/5
f 410/1/5 405/1/5 404/1/5
f 410/2/5 404/2/5 409/2/5
f 411/1/5 405/1/5 410/1/5
f 414/2/5 413/2/5 412/2/5
f 415/2/5 413/2/5 414/2/5
f 416/1/5 415/1/5 414/1/5
f 417/2/5 413/2/5 415/2/5
f 417/1/5 415/1/5 416/1/5
f 418/2/5 413/2/5 417/2/5
f 419/2/6 420/2/6 423/2/6
f 423/2/6 420/2/6 424/2/6
f 421/2/6 422/2/6 427/2/6
f 427/2/6 422/2/6 428/2/6
f 419/2/6 423/2/6 429/2/6
f 423/1/6 424/1/6 430/1/6
f 429/2/6 423/2/6 430/2/6
f 430/1/6 424/1/6 431/1/6
f 425/2/6 426/2/6 432/2/6
f 432/2/6 426/2/6 433/2/6
f 427/1/6 428/1/6 434/1/6
f 428/2/6 422/2/6 435/2/6
f 434/1/6 428/1/6 435/1/6
f 435/2/6 422/2/6 436/2/6
f 432/1/6 433/1/6 437/1/6
f 433/2/6 426/2/6 438/2/6
f 437/1/6 433/1/6 438/1/6
f 438/2/6 426/2/6 439/2/6
f 440/2/6 441/2/6 442/2/6
f 442/2/6 441/2/6 443/2/6
f 442/1/6 443/1/6 447/1/6
f 443/2/6 441/2/6 448/2/6
f 447/1/6 443/1/6 448/1/6
f 448/2/6 441/2/6 449/2/6
f 445/1/6 446/1/6 450/1/6
f 444/2/6 445/2/6 450/2/6
f 450/1/6 446/1/6 451/1/6
f 444/2/6 450/2/6 452/2/6
f 450/2/6 451/2/6 452/2/6
f 452/2/6 451/2/6 453/2/6
f 454/2/6 455/2/6 456/2/6
f 456/2/6 455/2/6 457/2/6
f 454/2/6 456/2/6 461/2/6
f 456/1/6 457/1/6 462/1/6
f 461/2/6 456/2/6 462/2/6
f 462/1/6 457/1/6 463/1/6
f 459/1/6 460/1/6 464/1/6
f 458/2/6 459/2/6 464/2/6
f 464/1/6 460/1/6 465/1/6
f 464/2/6 465/2/6 466/2/6
f 458/2/6 464/2/6 466/2/6
f 466/2/6 465/2/6 467/2/6
f 468/2/6 469/2/6 470/2/6
f 470/2/6 469/2/6 471/2/6
f 470/1/6 471/1/6 472/1/6
f 471/2/6 469/2/6 473/2/6
f 472/1/6 471/1/6 473/1/6
f 473/2/6 469/2/6 474/2/6
f 475/2/6 476/2/6 480/2/6
f 477/1/6 478/1/6 482/1/6
f 478/2/6 479/2/6 483/2/6
f 482/1/6 478/1/6 483/1/6
f 475/2/6 480/2/6 484/2/6
f 480/1/6 481/1/6 485/1/6
f 484/2/6 480/2/6 485/2/6
f 485/1/6 481/1/6 486/1/6
f 482/2/6 483/2/6 487/2/6
f 483/2/6 479/2/6 488/2/6
f 487/2/6 483/2/6 488/2/6
f 489/1/6 490/1/6 492/1/6
f 490/2/6 491/2/6 493/2/6
f 492/1/6 490/1/6 493/1/6
f 492/2/6 493/2/6 494/2/6
f 493/2/6 491/2/6 495/2/6
f 494/2/6 493/2/6 495/2/6
f 494/1/6 495/1/6 500/1/6
f 495/2/6 491/2/6 501/2/6
f 500/1/6 495/1/6 501/1/6
f 501/2/6 491/2/6 502/2/6
f 496/2/6 497/2/6 503/2/6
f 503/2/6 497/2/6 504/2/6
f 498/2/6 499/2/6 507/2/6
f 507/2/6 499/2/6 508/2/6
f 503/1/6 504/1/6 509/1/6
f 504/2/6 497/2/6 510/2/6
f 509/1/6 504/1/6 510/1/6
f 510/2/6 497/2/6 511/2/6
f 505/2/6 506/2/6 512/2/6
f 512/2/6 506/2/6 513/2/6
f 498/2/6 507/2/6 514/2/6
f 507/1/6 508/1/6 515/1/6
f 514/2/6 507/2/6 515/2/6
f 515/1/6 508/1/6 516/1/6
f 505/2/6 512/2/6 517/2/6
f 512/1/6 513/1/6 518/1/6
f 517/2/6 512/2/6 518/2/6
f 518/1/6 513/1/6 519/1/6
f 520/2/6 521/2/6 522/2/6
f 522/2/6 521/2/6 523/2/6
f 522/1/6 523/1/6 524/1/6
f 523/2/6 521/2/6 525/2/6
f 524/1/6 523/1/6 525/1/6
f 525/2/6 521/2/6 526/2/6
